PathFileType	4	(X/Y/Z)	D:\TRACE\spot_10-12-23\spot_arm_body_motion_1_4-v60.trc
DataRate	CameraRate	NumFrames	NumMarkers	Units	OrigDataRate	OrigDataStartFrame	OrigNumFrames
100.00	100.00	      14	9	mm	100.00	3501	      7000
Frame#	Time	front left toe			Front right toe			aft left toe			aft right toe			Arm			FL body			FR body			AL Body			AR Body			
		X1	Y1	Z1	X2	Y2	Z2	X3	Y3	Z3	X4	Y4	Z4	X5	Y5	Z5	X6	Y6	Z6	X7	Y7	Z7	X8	Y8	Z8	X9	Y9	Z9	

3501	35.000	73.21918	7.80295	-431.83383	451.48883	10.85873	-491.69489	187.39545	26.87030	160.35936	561.50684	19.68012	67.02661	206.98796	728.51672	-780.78375	167.09444	576.08380	-502.64105	316.01093	579.76227	-545.17133	409.00128	566.40784	346.37152	545.42523	564.86005	309.89243	
3502	35.010	72.57378	8.32074	-431.73682	450.68246	11.21809	-491.43295	186.37173	27.08975	160.49687	560.36353	19.49653	67.17892	206.45596	728.67462	-780.63336	167.48233	576.36340	-502.15479	316.57166	580.02100	-544.68347	409.23599	566.12207	346.66422	545.59100	564.74097	310.43698	
3503	35.020	71.88040	8.85719	-431.80328	448.40991	10.39152	-492.81778	185.81520	26.95133	160.67099	559.84412	19.54343	67.36124	205.69611	728.80457	-780.48999	167.79112	576.59448	-501.68402	317.05191	580.29071	-544.04169	409.18661	566.05347	347.17789	545.75574	564.54120	311.00412	
3504	35.030	71.25011	9.12641	-431.76306	447.74579	10.45039	-492.74493	185.23158	26.89211	160.69279	559.02710	19.43351	67.64128	204.78606	728.89832	-780.37518	168.20197	576.69861	-501.30954	317.51169	580.45544	-543.58197	409.24622	565.83771	347.56183	545.82794	564.30975	311.57764	
3505	35.040	70.56141	9.47093	-431.73248	447.35876	10.73469	-492.57758	184.23709	27.13377	160.76411	558.11816	19.35293	67.85623	203.94173	729.01929	-780.31421	168.64876	576.73083	-500.91336	318.05405	580.65015	-543.05103	409.27322	565.46771	348.09320	546.02625	564.16394	312.28024	
3506	35.050	70.01768	9.71940	-431.83221	447.01425	11.20420	-492.42532	184.03281	26.79114	160.87532	557.44189	19.44173	67.86523	203.12369	729.18939	-780.23492	169.30440	576.99707	-500.09109	318.43106	580.86804	-542.60516	409.52649	565.24988	348.86572	546.25110	564.07312	312.95612	
3507	35.060	69.70784	13.09917	-430.02689	446.64832	10.79718	-492.14545	183.67264	26.87644	161.13017	556.87988	18.96944	68.16952	202.38464	729.40259	-780.16650	169.70758	577.34552	-499.65610	319.00241	581.20728	-541.99475	409.66159	565.08521	349.54233	546.41724	563.83441	313.45239	
3508	35.070	70.65688	22.22720	-426.38483	447.13525	10.65640	-491.88211	183.55125	27.06387	160.83075	556.64587	18.84423	68.46932	201.78618	729.63049	-780.10095	170.16931	577.20026	-499.65555	319.65115	581.56201	-541.55414	409.38101	564.65167	349.94473	545.99487	563.79895	314.08258	
3509	35.080	73.87926	33.17497	-423.60205	446.49994	10.91719	-491.88257	183.23299	26.90888	160.99005	556.21991	18.83702	68.40597	201.13780	729.77930	-780.10565	171.29453	576.46710	-499.50436	319.91364	581.69928	-541.33063	409.30899	564.42157	350.18030	545.78290	563.78546	314.44879	
3510	35.090	73.31378	44.50669	-422.38263	445.43881	11.16403	-491.94901	182.02415	26.96664	161.29204	555.40021	18.90128	68.55599	200.62955	729.87671	-780.10071	171.25140	576.26685	-499.14578	320.02182	581.81696	-540.95502	409.43207	564.11938	350.60324	545.84589	563.90472	314.82199	
3511	35.100	71.45621	56.69272	-424.87720	444.92438	11.42448	-491.86221	181.54700	26.90985	161.39183	554.95007	18.81741	68.60223	200.11784	729.89496	-780.04443	170.42381	576.18921	-498.49695	319.74384	581.99066	-540.49707	409.21942	564.00909	351.06168	545.88531	564.07385	315.27573	
3512	35.110	69.31101	68.91953	-429.13821	444.44772	11.92158	-491.85794	181.22765	26.91416	161.47647	554.61926	18.63525	68.63956	199.29848	729.68378	-779.73022	170.08130	576.37421	-497.89737	319.42447	582.21558	-540.00317	409.29691	563.59332	351.37946	545.92310	563.82916	315.63892	
3513	35.120	68.92899	81.21939	-432.36844	443.76346	12.53236	-491.64200	181.15233	26.84278	161.56847	554.16107	18.34528	68.69830	198.56111	729.51501	-779.68494	169.53003	576.88306	-497.43558	318.21399	582.65887	-539.49921	409.14600	563.35809	351.77615	546.33411	563.53998	316.11484	
3514	35.130	69.21318	91.52378	-432.98270	443.31909	12.92844	-491.42529	180.88878	26.70677	161.64450	553.69348	18.43105	68.73867	198.30354	729.20251	-779.35870	168.80548	577.17230	-497.02411	318.01694	583.19427	-539.25238	408.88223	562.80396	352.11075	545.86371	563.54681	316.61267	
